# xmcd
#
# Track frame offsets: 
#        150
#        21902
#        33385
#        51552
#        64862
#        81367
#        93465
#        111327
#        123512
#        139782
#        153660
#        173632
#        192405
#        224700
#        242130
#
# Disc length: 3567 seconds
#
# Revision: 0
# Processed by: cddbd v1.4PL0 Copyright (c) Steve Scherf et al.
# Submitted via: ExactAudioCopy v0.90b4
#
DISCID=e50ded0f
DTITLE=Roy Dunn - Know 'd them all
DYEAR=1975
DGENRE=Blues
TTITLE0=She cook cornbread for her husband
TTITLE1=Further on down the line
TTITLE2=Everything I get a hold on to
TTITLE3=C.C. Rider
TTITLE4=You 're worrying me
TTITLE5=Lost lover blues
TTITLE6=Stranger 's blues
TTITLE7=Move to Kansas City
TTITLE8=Red Cross store
TTITLE9=Don 't tear my clothes
TTITLE10=I changed the lock
TTITLE11=Pearl Harbour blues
TTITLE12=Mr. Charlie
TTITLE13=Bachelor 's blues
TTITLE14=Roy 's matchbox blues
EXTD=
EXTT0=
EXTT1=
EXTT2=
EXTT3=
EXTT4=
EXTT5=
EXTT6=
EXTT7=
EXTT8=
EXTT9=
EXTT10=
EXTT11=
EXTT12=
EXTT13=
EXTT14=
PLAYORDER=
